<!-- COVER TEMPLATE — dev.to (cover_image), 1000×420. Editable draft.
     Replace: HEADLINE, TAGLINE. Optionally swap the right "docs card" for a real
     screenshot of /api/doc (Scalar). Convert <text> to outlines for a pixel-perfect export. -->
<svg xmlns="http://www.w3.org/2000/svg" viewBox="0 0 1000 420" width="1000" height="420" font-family="'Space Grotesk','Inter',system-ui,sans-serif">
  <!-- background -->
  <rect width="1000" height="420" fill="#181C26"/>
  <rect width="1000" height="6" fill="#F9492B"/>

  <!-- logo: icon + wordmark -->
  <g transform="translate(44,38) scale(0.6875)">
    <rect x="2" y="2" width="60" height="60" rx="16" fill="#20242E"/>
    <g font-family="'JetBrains Mono',ui-monospace,monospace" font-weight="700" font-size="34" fill="#F9492B">
      <text x="29" y="32" text-anchor="end"   dominant-baseline="central">{</text>
      <text x="35" y="32" text-anchor="start" dominant-baseline="central">}</text>
    </g>
    <path d="M 29.5 27 L 34.5 33.5 L 29.5 40" fill="none" stroke="#FFFFFF" stroke-width="3.2" stroke-linecap="round" stroke-linejoin="round"/>
  </g>
  <text x="98" y="70" font-size="24" font-weight="600" letter-spacing="0.4">
    <tspan fill="#E8EAF0">laravel</tspan><tspan fill="#6B7280">-</tspan><tspan fill="#F9492B">api</tspan>
  </text>

  <!-- HEADLINE -->
  <text x="44" y="196" font-size="42" font-weight="700" fill="#E8EAF0">OpenAPI docs from your</text>
  <text x="44" y="248" font-size="42" font-weight="700"><tspan fill="#F9492B">PHPDoc</tspan><tspan fill="#E8EAF0"> — no annotations</tspan></text>

  <!-- TAGLINE -->
  <text x="46" y="298" font-size="20" fill="#8A93A6">Versioned Laravel APIs · interactive docs at</text>
  <text x="46" y="324" font-size="20" fill="#8A93A6"><tspan>/api/doc</tspan><tspan fill="#8A93A6">, generated from the code you already write</tspan></text>

  <!-- MOTIF: docblock card → arrow → docs card -->
  <!-- code card -->
  <g font-family="'JetBrains Mono',ui-monospace,monospace" font-size="15">
    <rect x="588" y="120" width="200" height="180" rx="12" fill="#20242E" stroke="#2C3140"/>
    <text x="608" y="152" fill="#5A6373">/**</text>
    <text x="608" y="182"><tspan fill="#F9492B">@input</tspan><tspan fill="#8A93A6">  </tspan><tspan fill="#E8EAF0">$status</tspan></text>
    <text x="608" y="210"><tspan fill="#8A93A6">[</tspan><tspan fill="#7FB2FF">open,done</tspan><tspan fill="#8A93A6">]</tspan></text>
    <text x="608" y="240"><tspan fill="#F9492B">@output</tspan><tspan fill="#8A93A6"> </tspan><tspan fill="#E8EAF0">$id</tspan></text>
    <text x="608" y="270" fill="#5A6373">*/</text>
  </g>

  <!-- arrow -->
  <path d="M 810 210 L 836 210 M 828 201 L 837 210 L 828 219" fill="none" stroke="#F9492B" stroke-width="3.4" stroke-linecap="round" stroke-linejoin="round"/>

  <!-- docs card (mock of /api/doc) -->
  <g>
    <rect x="846" y="120" width="118" height="180" rx="12" fill="#F4F5F7"/>
    <rect x="846" y="120" width="118" height="30" rx="12" fill="#E7E9EE"/>
    <rect x="846" y="138" width="118" height="12" fill="#E7E9EE"/>
    <text x="862" y="141" font-size="12" font-weight="600" fill="#5A6373">/api/doc</text>
    <!-- method pill -->
    <rect x="862" y="166" width="46" height="20" rx="5" fill="#F9492B"/>
    <text x="868" y="180" font-size="12" font-weight="700" fill="#FFFFFF" font-family="'JetBrains Mono',ui-monospace,monospace">POST</text>
    <rect x="914" y="170" width="36" height="12" rx="3" fill="#C7CCD6"/>
    <!-- schema rows -->
    <rect x="862" y="204" width="88" height="10" rx="3" fill="#D5D9E1"/>
    <rect x="862" y="224" width="70" height="10" rx="3" fill="#D5D9E1"/>
    <rect x="862" y="244" width="80" height="10" rx="3" fill="#D5D9E1"/>
    <rect x="862" y="264" width="58" height="10" rx="3" fill="#D5D9E1"/>
  </g>
</svg>
